<svg version="1.1" id="Layer_1" xmlns="http://www.w3.org/2000/svg" xmlns:xlink="http://www.w3.org/1999/xlink" x="0px" y="0px"
	 width="100%" viewBox="0 0 93 80" enable-background="new 0 0 93 80" xml:space="preserve">
<path fill="#000000" opacity="1.000000" stroke="none" 
	d="
M63.000000,81.000000 
	C42.000004,81.000000 21.500008,81.000000 1.000008,81.000000 
	C1.000005,54.333344 1.000005,27.666683 1.000003,1.000019 
	C31.999987,1.000013 62.999973,1.000013 93.999969,1.000006 
	C93.999985,27.666649 93.999985,54.333298 93.999992,80.999969 
	C83.833336,81.000000 73.666664,81.000000 63.000000,81.000000 
M20.096840,58.514004 
	C20.393005,58.704021 20.689169,58.894039 21.034643,59.795959 
	C23.706459,65.289154 28.152416,68.335571 34.160404,68.939491 
	C37.086334,69.233612 40.058628,69.066460 43.454201,69.843765 
	C48.694454,69.553696 53.934711,69.263634 60.004696,68.974388 
	C66.407951,68.623154 72.644867,67.638451 74.993095,60.506142 
	C76.423241,56.162361 77.476662,51.579792 77.857033,47.034000 
	C78.339958,41.262627 77.741295,35.408829 78.020828,29.610428 
	C78.422653,21.275862 75.141808,15.185825 67.695160,10.311893 
	C55.474350,10.241399 43.253555,10.163473 31.032652,10.136713 
	C30.670361,10.135921 30.306890,10.672846 29.216246,11.031164 
	C28.209194,11.483988 27.065882,11.760635 26.216637,12.417486 
	C19.382044,17.703699 19.500261,25.410856 19.059271,33.895962 
	C19.033880,37.987934 18.867922,42.085251 19.023256,46.170353 
	C19.173880,50.131454 19.654594,54.080009 20.014786,57.990265 
	C20.014786,57.990265 19.964664,57.988148 20.096840,58.514004 
z"/>
<path fill="#FB6A05" opacity="1.000000" stroke="none" 
	d="
M43.009937,69.108116 
	C40.058628,69.066460 37.086334,69.233612 34.160404,68.939491 
	C28.152416,68.335571 23.706459,65.289154 20.864498,59.234791 
	C20.451122,58.445129 20.207893,58.216640 19.964664,57.988148 
	C19.964664,57.988148 20.014786,57.990265 20.036669,57.542313 
	C19.769047,49.048225 19.479544,41.002090 19.190041,32.955959 
	C19.500261,25.410856 19.382044,17.703699 26.216637,12.417486 
	C27.065882,11.760635 28.209194,11.483988 30.050917,11.028695 
	C43.209240,11.084299 55.532890,11.142371 67.856544,11.200444 
	C75.141808,15.185825 78.422653,21.275862 78.020828,29.610428 
	C77.741295,35.408829 78.339958,41.262627 77.857033,47.034000 
	C77.476662,51.579792 76.423241,56.162361 74.993095,60.506142 
	C72.644867,67.638451 66.407951,68.623154 59.280937,68.672348 
	C53.374763,68.616234 48.192348,68.862175 43.009937,69.108116 
M61.704025,35.530418 
	C62.056648,30.564224 61.754150,26.160360 55.084187,25.839756 
	C53.758739,25.776047 52.499783,24.458437 51.198181,23.740780 
	C48.884682,22.465195 35.986992,26.390932 34.837746,28.752712 
	C34.555824,29.332085 34.359486,30.031147 34.379795,30.667007 
	C34.522465,35.134216 34.206608,39.701019 35.046665,44.040600 
	C36.233059,50.169323 40.899933,54.508514 46.632790,54.756451 
	C50.535458,54.925224 55.725731,52.120266 58.283016,48.973293 
	C60.781853,45.898247 60.670422,40.702057 61.704025,35.530418 
z"/>
<path fill="#D77632" opacity="1.000000" stroke="none" 
	d="
M67.775848,10.756168 
	C55.532890,11.142371 43.209240,11.084299 30.414780,10.992644 
	C30.306890,10.672846 30.670361,10.135921 31.032652,10.136713 
	C43.253555,10.163473 55.474350,10.241399 67.775848,10.756168 
z"/>
<path fill="#F9C67E" opacity="1.000000" stroke="none" 
	d="
M43.232071,69.475937 
	C48.192348,68.862175 53.374763,68.616234 58.866070,68.671936 
	C53.934711,69.263634 48.694454,69.553696 43.232071,69.475937 
z"/>
<path fill="#EE9133" opacity="1.000000" stroke="none" 
	d="
M19.124657,33.425961 
	C19.479544,41.002090 19.769047,49.048225 20.024445,57.564217 
	C19.654594,54.080009 19.173880,50.131454 19.023256,46.170353 
	C18.867922,42.085251 19.033880,37.987934 19.124657,33.425961 
z"/>
<path fill="#EE9133" opacity="1.000000" stroke="none" 
	d="
M20.030752,58.251076 
	C20.207893,58.216640 20.451122,58.445129 20.839844,58.878838 
	C20.689169,58.894039 20.393005,58.704021 20.030752,58.251076 
z"/>
<path fill="#FFE4C4" opacity="1.000000" stroke="none" 
	d="
M61.704430,35.983704 
	C60.670422,40.702057 60.781853,45.898247 58.283016,48.973293 
	C55.725731,52.120266 50.535458,54.925224 46.632790,54.756451 
	C40.899933,54.508514 36.233059,50.169323 35.046665,44.040600 
	C34.206608,39.701019 34.522465,35.134216 34.379795,30.667007 
	C34.359486,30.031147 34.555824,29.332085 34.837746,28.752712 
	C35.986992,26.390932 48.884682,22.465195 51.198181,23.740780 
	C52.499783,24.458437 53.758739,25.776047 55.084187,25.839756 
	C61.754150,26.160360 62.056648,30.564224 61.704430,35.983704 
M57.596497,30.420336 
	C51.979748,28.055317 46.405205,24.644156 40.486717,29.736582 
	C40.370430,29.836639 40.108498,29.794407 40.026436,29.903078 
	C39.225784,30.963354 37.851917,32.002934 37.779343,33.122204 
	C37.576027,36.257763 37.634941,39.470222 38.102665,42.575176 
	C38.782215,47.086330 44.132790,51.892723 47.982704,51.906464 
	C51.863605,51.920315 57.313820,47.177757 57.889187,42.609661 
	C58.362377,38.852867 58.008789,34.991940 57.596497,30.420336 
z"/>
<path fill="#F86C0B" opacity="1.000000" stroke="none" 
	d="
M57.809067,30.798750 
	C58.008789,34.991940 58.362377,38.852867 57.889187,42.609661 
	C57.313820,47.177757 51.863605,51.920315 47.982704,51.906464 
	C44.132790,51.892723 38.782215,47.086330 38.102665,42.575176 
	C37.634941,39.470222 37.576027,36.257763 37.779343,33.122204 
	C37.851917,32.002934 39.225784,30.963354 40.026436,29.903078 
	C40.108498,29.794407 40.370430,29.836639 40.486717,29.736582 
	C46.405205,24.644156 51.979748,28.055317 57.809067,30.798750 
z"/>
</svg>